{
    "streams": [
        {
            "index": 0,
            "codec_name": "aac",
            "codec_long_name": "AAC (Advanced Audio Coding)",
            "profile": "LC",
            "codec_type": "audio",
            "codec_tag_string": "mp4a",
            "codec_tag": "0x6134706d",
            "sample_fmt": "fltp",
            "sample_rate": "22050",
            "channels": 2,
            "channel_layout": "stereo",
            "bits_per_sample": 0,
            "initial_padding": 0,
            "id": "0x1",
            "r_frame_rate": "0/0",
            "avg_frame_rate": "0/0",
            "time_base": "1/22050",
            "start_pts": 0,
            "start_time": "0.000000",
            "duration_ts": 1325095,
            "duration": "60.095011",
            "bit_rate": "65075",
            "nb_frames": "1295",
            "extradata_size": 2,
            "disposition": {
                "default": 1,
                "dub": 0,
                "original": 0,
                "comment": 0,
                "lyrics": 0,
                "karaoke": 0,
                "forced": 0,
                "hearing_impaired": 0,
                "visual_impaired": 0,
                "clean_effects": 0,
                "attached_pic": 0,
                "timed_thumbnails": 0,
                "captions": 0,
                "descriptions": 0,
                "metadata": 0,
                "dependent": 0,
                "still_image": 0
            },
            "tags": {
                "creation_time": "2010-02-09T01:55:39.000000Z",
                "language": "eng",
                "handler_name": "Apple Sound Media Handler",
                "vendor_id": "[0][0][0][0]"
            }
        },
        {
            "index": 1,
            "codec_name": "h264",
            "codec_long_name": "H.264 / AVC / MPEG-4 AVC / MPEG-4 part 10",
            "profile": "Constrained Baseline",
            "codec_type": "video",
            "codec_tag_string": "avc1",
            "codec_tag": "0x31637661",
            "width": 640,
            "height": 360,
            "coded_width": 640,
            "coded_height": 360,
            "closed_captions": 0,
            "film_grain": 0,
            "has_b_frames": 0,
            "pix_fmt": "yuv420p",
            "level": 30,
            "color_range": "tv",
            "color_space": "smpte170m",
            "color_transfer": "bt709",
            "color_primaries": "smpte170m",
            "chroma_location": "topleft",
            "field_order": "progressive",
            "refs": 1,
            "is_avc": "true",
            "nal_length_size": "4",
            "id": "0x2",
            "r_frame_rate": "24/1",
            "avg_frame_rate": "288000/12019",
            "time_base": "1/600",
            "start_pts": 0,
            "start_time": "0.000000",
            "duration_ts": 36057,
            "duration": "60.095000",
            "bit_rate": "612177",
            "bits_per_raw_sample": "8",
            "nb_frames": "1440",
            "extradata_size": 36,
            "disposition": {
                "default": 1,
                "dub": 0,
                "original": 0,
                "comment": 0,
                "lyrics": 0,
                "karaoke": 0,
                "forced": 0,
                "hearing_impaired": 0,
                "visual_impaired": 0,
                "clean_effects": 0,
                "attached_pic": 0,
                "timed_thumbnails": 0,
                "captions": 0,
                "descriptions": 0,
                "metadata": 0,
                "dependent": 0,
                "still_image": 0
            },
            "tags": {
                "creation_time": "2010-02-09T01:55:39.000000Z",
                "language": "eng",
                "handler_name": "Apple Video Media Handler",
                "vendor_id": "[0][0][0][0]"
            }
        },
        {
            "index": 2,
            "codec_type": "data",
            "codec_tag_string": "rtp ",
            "codec_tag": "0x20707472",
            "id": "0x3",
            "r_frame_rate": "0/0",
            "avg_frame_rate": "0/0",
            "time_base": "1/90000",
            "start_pts": 0,
            "start_time": "0.000000",
            "duration_ts": 5408550,
            "duration": "60.095000",
            "bit_rate": "45858",
            "nb_frames": "1440",
            "disposition": {
                "default": 0,
                "dub": 0,
                "original": 0,
                "comment": 0,
                "lyrics": 0,
                "karaoke": 0,
                "forced": 0,
                "hearing_impaired": 0,
                "visual_impaired": 0,
                "clean_effects": 0,
                "attached_pic": 0,
                "timed_thumbnails": 0,
                "captions": 0,
                "descriptions": 0,
                "metadata": 0,
                "dependent": 0,
                "still_image": 0
            },
            "tags": {
                "creation_time": "2010-02-09T01:55:39.000000Z",
                "language": "eng",
                "handler_name": "hint media handler"
            }
        },
        {
            "index": 3,
            "codec_type": "data",
            "codec_tag_string": "rtp ",
            "codec_tag": "0x20707472",
            "id": "0x4",
            "r_frame_rate": "0/0",
            "avg_frame_rate": "0/0",
            "time_base": "1/22050",
            "start_pts": 0,
            "start_time": "0.000000",
            "duration_ts": 1325095,
            "duration": "60.095011",
            "bit_rate": "5514",
            "nb_frames": "648",
            "disposition": {
                "default": 0,
                "dub": 0,
                "original": 0,
                "comment": 0,
                "lyrics": 0,
                "karaoke": 0,
                "forced": 0,
                "hearing_impaired": 0,
                "visual_impaired": 0,
                "clean_effects": 0,
                "attached_pic": 0,
                "timed_thumbnails": 0,
                "captions": 0,
                "descriptions": 0,
                "metadata": 0,
                "dependent": 0,
                "still_image": 0
            },
            "tags": {
                "creation_time": "2010-02-09T01:55:39.000000Z",
                "language": "eng",
                "handler_name": "hint media handler"
            }
        }
    ]
}
